<?xml version="1.0" standalone="no"?><!-- Generator: Gravit.io --><svg xmlns="http://www.w3.org/2000/svg" xmlns:xlink="http://www.w3.org/1999/xlink" style="isolation:isolate" viewBox="0 0 543 500" width="64" height="500"><g style="isolation:isolate" id="Layer 0"><path d=" M 79 245 C 79 136.273 166.153 48 273.5 48 C 380.847 48 468 136.273 468 245 C 468 353.727 380.847 442 273.5 442 C 166.153 442 79 353.727 79 245 Z " fill="rgb(248,149,26)"/><path d=" M 153 381.5 C 153 344.798 204.978 315 269 315 C 333.022 315 385 344.798 385 381.5 C 385 418.202 333.022 448 269 448 C 204.978 448 153 418.202 153 381.5 Z " fill="rgb(255,255,255)"/></g><path d=" M 367.061 418.894 C 327.293 419.647 222.975 419.673 178.837 418.973 L 157.237 404.285 C 157.954 403.283 157.544 400.696 156.105 396.488 C 145.845 366.481 143.894 343.806 148.15 304.039 C 150.088 285.928 155.866 260.736 160.319 250.982 C 161.054 249.372 161.34 245.29 161.351 236.249 C 161.405 190.369 182.404 138.356 205.255 127.502 C 210.959 124.793 211.694 124.838 218.678 128.334 C 232.695 135.349 243.333 150.619 251.279 175.125 C 253.538 182.09 252.817 181.755 265.518 181.755 C 271.674 181.755 280.191 182.044 284.445 182.398 C 293.704 183.168 293.789 183.113 296.215 174.757 C 305.363 143.254 327.982 120.114 342.272 127.638 C 366.998 140.657 387.342 193.461 385.82 240.669 C 385.459 251.852 385.533 252.712 387.31 257.98 C 396.5 285.228 395.694 364.918 386.002 387.28 C 385.651 388.09 384.677 390.908 383.837 393.541 C 382.998 396.175 381.146 400.711 379.723 403.621 C 377.997 407.149 377.503 410.105 377.979 411.463 L 367.061 418.894 Z " fill="rgb(255,255,255)"/><path d=" M 205.507 144.37 C 193.172 157.355 182.065 181.653 177.643 205.327 C 173.202 229.101 174.555 236.216 181.817 227.284 C 192.678 213.926 212.718 199.793 230.211 193.154 C 239.492 189.632 240.55 188.762 239.882 185.2 C 236.481 167.057 219.561 140.134 211.559 140.134 C 210.048 140.134 208.506 141.214 205.507 144.37 Z " fill-rule="evenodd" fill="rgb(90,92,92)"/><path d=" M 329.099 143.474 C 321.245 149.872 314.42 161.604 308.696 178.549 C 305.152 189.042 305.05 188.837 315.752 192.823 C 332.214 198.955 353.604 213.735 363.967 226.138 C 372 235.753 373.556 230.593 369.463 207.906 C 364.768 181.883 355.014 159.836 341.521 144.751 C 336.318 138.934 334.857 138.784 329.099 143.474 Z " fill-rule="evenodd" fill="rgb(90,92,92)"/><path d=" M 209.468 232.538 C 182.284 242.636 175.615 280.521 197.551 300.243 C 220.057 320.478 254.305 302.065 254.205 269.785 C 254.126 244.516 230.4 224.762 209.468 232.538 Z " fill-rule="evenodd" fill="rgb(90,92,92)"/><path d=" M 323.855 256.85 C 314.425 261.135 313.44 271.947 321.956 277.686 C 330.883 283.702 342.996 272.367 337.989 262.683 C 335.183 257.257 328.777 254.613 323.855 256.85 Z " fill-rule="evenodd" fill="rgb(90,92,92)"/><path d=" M 224.256 259.242 C 225.388 259.813 226.962 261.341 227.753 262.638 C 233.738 272.455 219.876 283.142 212.32 274.536 C 204.558 265.695 213.733 253.939 224.256 259.242 Z " fill-rule="evenodd" fill="rgb(255,255,255)"/><path d=" M 257.426 318.296 C 248.757 321.292 245.104 325.883 245.222 333.636 C 245.361 342.8 253.705 355.335 262.944 360.259 C 268.584 363.266 268.329 362.172 268.183 382.715 C 268.045 402.114 268.292 403.27 272.918 404.918 C 280.263 407.533 281.797 403.619 282.235 381.151 L 282.603 362.234 L 286.695 360.024 C 304.85 350.219 310.307 327.794 296.278 320.637 C 288.593 316.716 265.947 315.352 257.426 318.296 Z " fill-rule="evenodd" fill="rgb(90,92,92)"/></svg>